<?xml version="1.0" encoding="utf-8" ?>
<svg baseProfile="tiny" height="100%" version="1.2" width="100%" xmlns="http://www.w3.org/2000/svg" xmlns:ev="http://www.w3.org/2001/xml-events" xmlns:xlink="http://www.w3.org/1999/xlink"><defs /><path d="M 60 6 L 59 7 L 56 7 L 55 8 L 52 8 L 51 9 L 49 9 L 48 10 L 47 10 L 46 11 L 45 11 L 44 12 L 42 12 L 40 14 L 39 14 L 38 15 L 37 15 L 35 17 L 34 17 L 32 19 L 31 19 L 19 31 L 19 32 L 17 34 L 17 35 L 15 37 L 15 38 L 14 39 L 14 40 L 13 41 L 13 42 L 12 43 L 12 44 L 11 45 L 11 46 L 10 47 L 10 48 L 9 49 L 9 51 L 8 52 L 8 55 L 7 56 L 7 59 L 6 60 L 6 67 L 5 68 L 5 77 L 6 78 L 6 85 L 7 86 L 7 89 L 8 90 L 8 93 L 9 94 L 9 96 L 10 97 L 10 98 L 11 99 L 11 100 L 12 101 L 12 102 L 13 103 L 13 104 L 14 105 L 14 106 L 15 107 L 15 108 L 17 110 L 17 111 L 19 113 L 19 114 L 31 126 L 32 126 L 34 128 L 35 128 L 37 130 L 38 130 L 39 131 L 40 131 L 41 132 L 42 132 L 43 133 L 44 133 L 45 134 L 46 134 L 47 135 L 48 135 L 49 136 L 51 136 L 52 137 L 55 137 L 56 138 L 59 138 L 60 139 L 67 139 L 67 97 L 46 97 L 44 95 L 44 50 L 45 49 L 67 49 L 67 6 Z" fill="none" stroke="black" /><path d="M 73 5 L 73 52 L 72 53 L 72 54 L 71 55 L 50 55 L 50 91 L 71 91 L 73 93 L 73 140 L 81 140 L 82 139 L 87 139 L 88 138 L 91 138 L 92 137 L 94 137 L 95 136 L 97 136 L 98 135 L 99 135 L 100 134 L 101 134 L 102 133 L 103 133 L 104 132 L 105 132 L 106 131 L 107 131 L 109 129 L 110 129 L 112 127 L 113 127 L 117 123 L 118 123 L 123 118 L 123 117 L 127 113 L 127 112 L 129 110 L 129 109 L 131 107 L 131 106 L 132 105 L 132 104 L 133 103 L 133 102 L 134 101 L 134 100 L 135 99 L 135 98 L 136 97 L 136 95 L 137 94 L 137 92 L 138 91 L 138 88 L 139 87 L 139 82 L 140 81 L 140 64 L 139 63 L 139 58 L 138 57 L 138 54 L 137 53 L 137 51 L 136 50 L 136 48 L 135 47 L 135 46 L 134 45 L 134 44 L 133 43 L 133 42 L 132 41 L 132 40 L 131 39 L 131 38 L 129 36 L 129 35 L 127 33 L 127 32 L 123 28 L 123 27 L 118 22 L 117 22 L 113 18 L 112 18 L 110 16 L 109 16 L 107 14 L 106 14 L 105 13 L 104 13 L 103 12 L 102 12 L 101 11 L 100 11 L 99 10 L 98 10 L 97 9 L 95 9 L 94 8 L 92 8 L 91 7 L 88 7 L 87 6 L 82 6 L 81 5 Z" fill="none" stroke="black" /></svg>