<?xml version="1.0" encoding="utf-8" ?>
<svg baseProfile="tiny" height="100%" version="1.2" width="100%" xmlns="http://www.w3.org/2000/svg" xmlns:ev="http://www.w3.org/2001/xml-events" xmlns:xlink="http://www.w3.org/1999/xlink"><defs /><path d="M 103 0 L 102 1 L 94 1 L 93 2 L 86 2 L 85 3 L 79 3 L 78 4 L 74 4 L 73 5 L 69 5 L 68 6 L 64 6 L 63 7 L 60 7 L 59 8 L 56 8 L 55 9 L 53 9 L 52 10 L 50 10 L 49 11 L 47 11 L 46 12 L 44 12 L 43 13 L 41 13 L 40 14 L 39 14 L 38 15 L 36 15 L 35 16 L 34 16 L 33 17 L 32 17 L 31 18 L 30 18 L 29 19 L 28 19 L 27 20 L 26 20 L 25 21 L 24 21 L 23 22 L 22 22 L 20 24 L 19 24 L 16 27 L 15 27 L 5 37 L 5 38 L 3 40 L 3 41 L 2 42 L 2 44 L 1 45 L 1 47 L 0 48 L 0 61 L 1 62 L 1 64 L 2 65 L 2 66 L 3 67 L 3 68 L 4 69 L 4 70 L 6 72 L 6 73 L 13 80 L 14 80 L 17 83 L 18 83 L 20 85 L 21 85 L 23 87 L 24 87 L 25 88 L 26 88 L 27 89 L 28 89 L 29 90 L 30 90 L 31 91 L 32 91 L 33 92 L 34 92 L 35 93 L 37 93 L 38 94 L 39 94 L 40 95 L 42 95 L 43 96 L 44 96 L 45 97 L 47 97 L 48 98 L 50 98 L 51 99 L 54 99 L 55 100 L 57 100 L 58 101 L 61 101 L 62 102 L 65 102 L 66 103 L 70 103 L 71 104 L 75 104 L 76 105 L 81 105 L 82 106 L 88 106 L 89 107 L 97 107 L 98 108 L 110 108 L 111 109 L 144 109 L 145 108 L 157 108 L 158 107 L 166 107 L 167 106 L 173 106 L 174 105 L 179 105 L 180 104 L 184 104 L 185 103 L 189 103 L 190 102 L 193 102 L 194 101 L 197 101 L 198 100 L 200 100 L 201 99 L 204 99 L 205 98 L 207 98 L 208 97 L 210 97 L 211 96 L 212 96 L 213 95 L 215 95 L 216 94 L 217 94 L 218 93 L 220 93 L 221 92 L 222 92 L 223 91 L 224 91 L 225 90 L 226 90 L 227 89 L 228 89 L 229 88 L 230 88 L 231 87 L 232 87 L 234 85 L 235 85 L 237 83 L 238 83 L 241 80 L 242 80 L 248 74 L 248 73 L 251 70 L 251 69 L 252 68 L 252 67 L 253 66 L 253 65 L 254 64 L 254 62 L 255 61 L 255 48 L 254 47 L 254 44 L 253 43 L 253 42 L 252 41 L 252 40 L 250 38 L 250 37 L 239 26 L 238 26 L 236 24 L 235 24 L 233 22 L 232 22 L 231 21 L 230 21 L 229 20 L 228 20 L 227 19 L 226 19 L 225 18 L 224 18 L 223 17 L 222 17 L 221 16 L 220 16 L 219 15 L 217 15 L 216 14 L 215 14 L 214 13 L 212 13 L 211 12 L 209 12 L 208 11 L 206 11 L 205 10 L 203 10 L 202 9 L 200 9 L 199 8 L 196 8 L 195 7 L 192 7 L 191 6 L 188 6 L 187 5 L 182 5 L 181 4 L 177 4 L 176 3 L 170 3 L 169 2 L 163 2 L 162 1 L 153 1 L 152 0 Z" fill="none" stroke="black" /></svg>