<?xml version="1.0" encoding="utf-8" ?>
<svg baseProfile="tiny" height="100%" version="1.2" width="100%" xmlns="http://www.w3.org/2000/svg" xmlns:ev="http://www.w3.org/2001/xml-events" xmlns:xlink="http://www.w3.org/1999/xlink"><defs /><path d="M 75 23 L 76 24 L 76 25 L 77 26 L 77 28 L 78 29 L 78 31 L 79 32 L 79 34 L 81 34 L 81 32 L 82 31 L 82 29 L 83 28 L 83 27 L 84 26 L 84 24 L 85 23 L 84 23 L 84 24 L 83 25 L 83 27 L 82 28 L 82 30 L 81 31 L 81 32 L 80 33 L 79 32 L 79 31 L 78 30 L 78 28 L 77 27 L 77 25 L 76 24 L 76 23 Z" fill="none" stroke="black" /><path d="M 66 23 L 65 24 L 65 25 L 64 26 L 66 28 L 68 28 L 69 29 L 70 29 L 72 31 L 72 32 L 70 34 L 67 34 L 65 32 L 65 31 L 64 31 L 64 32 L 66 34 L 71 34 L 72 33 L 72 32 L 73 31 L 72 30 L 72 29 L 71 29 L 70 28 L 67 28 L 65 26 L 65 25 L 67 23 L 70 23 L 71 24 L 71 25 L 72 25 L 72 24 L 71 24 L 70 23 Z" fill="none" stroke="black" /><path d="M 52 23 L 52 32 L 54 34 L 58 34 L 59 33 L 59 32 L 60 31 L 60 23 L 59 23 L 59 32 L 57 34 L 55 34 L 53 32 L 53 23 Z" fill="none" stroke="black" /><path d="M 0 0 L 0 26 L 0 25 L 2 23 L 2 22 L 4 20 L 4 19 L 6 17 L 6 16 L 8 14 L 8 13 L 10 11 L 10 10 L 12 8 L 12 7 L 15 4 L 121 4 L 123 6 L 123 7 L 125 9 L 125 10 L 127 12 L 127 13 L 128 14 L 128 15 L 129 16 L 129 17 L 131 19 L 131 20 L 133 22 L 133 23 L 135 25 L 135 26 L 136 27 L 135 28 L 135 29 L 133 31 L 133 32 L 132 33 L 132 34 L 130 36 L 130 37 L 129 38 L 129 39 L 127 41 L 127 42 L 126 43 L 126 44 L 125 45 L 125 46 L 123 48 L 123 49 L 121 51 L 15 51 L 13 49 L 13 48 L 11 46 L 11 45 L 9 43 L 9 42 L 7 40 L 7 39 L 6 38 L 6 37 L 4 35 L 4 34 L 2 32 L 2 31 L 0 29 L 0 28 L 0 56 L 138 56 L 138 0 Z" fill="none" stroke="black" /></svg>