<?xml version="1.0" encoding="utf-8" ?>
<svg baseProfile="tiny" height="100%" version="1.2" width="100%" xmlns="http://www.w3.org/2000/svg" xmlns:ev="http://www.w3.org/2001/xml-events" xmlns:xlink="http://www.w3.org/1999/xlink"><defs /><path d="M 171 43 L 170 44 L 168 44 L 166 46 L 166 47 L 165 48 L 165 54 L 168 57 L 170 57 L 171 58 L 173 58 L 174 59 L 177 59 L 178 60 L 180 60 L 184 64 L 184 66 L 180 70 L 177 70 L 176 71 L 175 70 L 171 70 L 167 66 L 167 65 L 166 64 L 163 64 L 164 65 L 164 67 L 165 68 L 165 69 L 167 71 L 168 71 L 169 72 L 170 72 L 171 73 L 180 73 L 181 72 L 182 72 L 186 68 L 186 61 L 183 58 L 182 58 L 181 57 L 179 57 L 178 56 L 175 56 L 174 55 L 171 55 L 170 54 L 169 54 L 168 53 L 168 52 L 167 51 L 167 50 L 168 49 L 168 48 L 170 46 L 173 46 L 174 45 L 176 45 L 177 46 L 179 46 L 182 49 L 182 50 L 183 51 L 185 51 L 185 48 L 184 47 L 184 46 L 183 45 L 182 45 L 181 44 L 180 44 L 179 43 Z" fill="none" stroke="black" /><path d="M 159 43 L 158 44 L 158 46 L 157 47 L 157 49 L 156 50 L 156 53 L 155 54 L 155 57 L 154 58 L 154 60 L 153 61 L 153 64 L 152 65 L 152 67 L 151 68 L 151 71 L 150 72 L 150 74 L 152 74 L 152 72 L 153 71 L 153 68 L 154 67 L 154 65 L 155 64 L 155 61 L 156 60 L 156 58 L 157 57 L 157 54 L 158 53 L 158 50 L 159 49 L 159 47 L 160 46 L 160 43 Z" fill="none" stroke="black" /><path d="M 122 43 L 122 44 L 123 45 L 123 47 L 124 48 L 124 49 L 125 50 L 125 52 L 126 53 L 126 55 L 127 56 L 127 57 L 128 58 L 128 60 L 129 61 L 129 62 L 130 63 L 130 65 L 131 66 L 131 68 L 132 69 L 132 70 L 133 71 L 133 72 L 134 73 L 136 73 L 137 72 L 137 71 L 138 70 L 138 69 L 139 68 L 139 66 L 140 65 L 140 64 L 141 63 L 141 61 L 142 60 L 142 59 L 143 58 L 143 56 L 144 55 L 144 53 L 145 52 L 145 51 L 146 50 L 146 48 L 147 47 L 147 46 L 148 45 L 148 43 L 145 43 L 145 45 L 144 46 L 144 47 L 143 48 L 143 50 L 142 51 L 142 53 L 141 54 L 141 55 L 140 56 L 140 58 L 139 59 L 139 61 L 138 62 L 138 63 L 137 64 L 137 66 L 136 67 L 136 69 L 135 70 L 134 69 L 134 67 L 133 66 L 133 64 L 132 63 L 132 61 L 131 60 L 131 58 L 130 57 L 130 56 L 129 55 L 129 53 L 128 52 L 128 50 L 127 49 L 127 47 L 126 46 L 126 44 L 125 43 Z" fill="none" stroke="black" /><path d="M 102 43 L 101 44 L 100 44 L 97 47 L 97 49 L 96 50 L 96 51 L 97 52 L 97 54 L 100 57 L 101 57 L 102 58 L 105 58 L 106 59 L 109 59 L 110 60 L 112 60 L 115 63 L 115 67 L 112 70 L 108 70 L 107 71 L 106 70 L 103 70 L 102 69 L 101 69 L 99 67 L 99 66 L 98 65 L 98 64 L 95 64 L 95 65 L 96 66 L 96 68 L 100 72 L 102 72 L 103 73 L 112 73 L 113 72 L 114 72 L 118 68 L 118 61 L 115 58 L 114 58 L 113 57 L 110 57 L 109 56 L 106 56 L 105 55 L 103 55 L 102 54 L 101 54 L 100 53 L 100 52 L 99 51 L 99 49 L 102 46 L 105 46 L 106 45 L 108 45 L 109 46 L 111 46 L 114 49 L 114 51 L 117 51 L 117 48 L 113 44 L 112 44 L 111 43 Z" fill="none" stroke="black" /><path d="M 66 43 L 66 65 L 67 66 L 67 68 L 68 69 L 68 70 L 69 71 L 70 71 L 71 72 L 72 72 L 73 73 L 82 73 L 83 72 L 84 72 L 88 68 L 88 66 L 89 65 L 89 43 L 86 43 L 86 64 L 85 65 L 85 67 L 82 70 L 78 70 L 77 71 L 76 70 L 73 70 L 70 67 L 70 66 L 69 65 L 69 43 Z" fill="none" stroke="black" /></svg>