# Blender 4.0.2
# www.blender.org
mtllib US01.mtl
o US01
v -1.049098 -0.545902 -0.228077
v 2.719573 -0.545902 -0.228077
v -1.049098 0.538905 -0.228077
v 2.719573 0.538905 -0.228077
v -1.049098 -0.545902 -0.666367
v 2.719573 -0.545902 -0.666367
v -1.049098 0.538905 -0.666367
v 2.719573 0.538905 -0.666367
vn -0.0000 -0.0000 -1.0000
vn -0.0000 -0.0000 1.0000
vn -1.0000 -0.0000 -0.0000
vn 1.0000 -0.0000 -0.0000
vn -0.0000 -1.0000 -0.0000
vn -0.0000 1.0000 -0.0000
vt 0.000000 0.000000
vt 0.000000 1.000000
vt 1.000000 1.000000
vt 1.000000 0.000000
s 1
usemtl US
f 1/1/1 3/2/1 4/3/1 2/4/1
f 5/1/2 6/4/2 8/3/2 7/2/2
f 2/4/3 4/3/3 8/3/3 6/4/3
f 3/2/4 1/1/4 5/1/4 7/2/4
f 4/3/5 3/2/5 7/2/5 8/3/5
f 1/1/6 2/4/6 6/4/6 5/1/6
