# Blender 4.0.2
# www.blender.org
mtllib US02.mtl
o US02
v -1.049098 -1.319967 -0.396165
v 3.119573 -1.319967 -0.396165
v -1.049098 -0.545902 -0.396165
v 3.119573 -0.545902 -0.396165
v -1.049098 -1.319967 -0.828406
v 3.119573 -1.319967 -0.828406
v -1.049098 -0.545902 -0.828406
v 3.119573 -0.545902 -0.828406
vn -0.0000 -0.0000 1.0000
vn -0.0000 -0.0000 -1.0000
vn 1.0000 -0.0000 -0.0000
vn -1.0000 -0.0000 -0.0000
vn -0.0000 1.0000 -0.0000
vn -0.0000 -1.0000 -0.0000
vt 0.000000 0.000000
vt 1.000000 0.000000
vt 1.000000 1.000000
vt 0.000000 1.000000
s 1
usemtl US
f 1/1/1 2/2/1 4/3/1 3/4/1
f 5/1/2 7/4/2 8/3/2 6/2/2
f 2/2/3 6/2/3 8/3/3 4/3/3
f 3/4/4 7/4/4 5/1/4 1/1/4
f 4/3/5 8/3/5 7/4/5 3/4/5
f 1/1/6 5/1/6 6/2/6 2/2/6
