# Blender 4.0.2
# www.blender.org
mtllib USV100.mtl
o USV100
v 2.680838 -0.545902 -0.226613
v 7.154322 -0.545902 -0.226613
v 2.680838 0.545395 -0.226613
v 7.154322 0.545395 -0.226613
v 2.680838 -0.545902 -0.656326
v 7.154322 -0.545902 -0.656326
v 2.680838 0.545395 -0.656326
v 7.154322 0.545395 -0.656326
vn -0.0000 -0.0000 1.0000
vn -0.0000 -0.0000 -1.0000
vn 1.0000 -0.0000 -0.0000
vn -1.0000 -0.0000 -0.0000
vn -0.0000 1.0000 -0.0000
vn -0.0000 -1.0000 -0.0000
vt 0.000000 0.000000
vt 0.957293 0.000000
vt 0.957293 1.000000
vt 0.000000 1.000000
vt 0.957293 1.000000
vt 0.957293 0.000000
vt 1.000000 0.000000
vt 1.000000 1.000000
vt 0.957293 1.000000
vt 0.957293 0.000000
s 1
usemtl USVs
f 1/1/1 2/2/1 4/3/1 3/4/1
f 5/1/2 7/4/2 8/5/2 6/6/2
f 2/7/3 6/7/3 8/8/3 4/8/3
f 3/4/4 7/4/4 5/1/4 1/1/4
f 4/9/5 8/3/5 7/4/5 3/4/5
f 1/1/6 5/1/6 6/2/6 2/10/6
