<?xml version="1.0" encoding="utf-8" ?>
<svg baseProfile="tiny" height="100%" version="1.2" width="100%" xmlns="http://www.w3.org/2000/svg" xmlns:ev="http://www.w3.org/2001/xml-events" xmlns:xlink="http://www.w3.org/1999/xlink"><defs /><path d="M 62 4 L 61 5 L 52 5 L 51 6 L 48 6 L 47 7 L 45 7 L 44 8 L 42 8 L 41 9 L 39 9 L 38 10 L 37 10 L 36 11 L 35 11 L 33 13 L 32 13 L 31 14 L 30 14 L 26 18 L 25 18 L 18 25 L 18 26 L 15 29 L 15 30 L 13 32 L 13 33 L 12 34 L 14 34 L 15 33 L 18 33 L 19 32 L 21 32 L 22 31 L 25 31 L 26 30 L 29 30 L 30 29 L 33 29 L 34 28 L 36 28 L 37 27 L 40 27 L 41 26 L 44 26 L 45 25 L 48 25 L 49 24 L 52 24 L 53 23 L 55 23 L 56 22 L 59 22 L 60 21 L 63 21 L 64 20 L 68 20 L 70 22 L 70 53 L 68 55 L 67 55 L 66 56 L 63 56 L 62 57 L 59 57 L 58 58 L 56 58 L 55 59 L 52 59 L 51 60 L 48 60 L 47 61 L 45 61 L 44 62 L 41 62 L 40 63 L 37 63 L 36 64 L 34 64 L 33 65 L 30 65 L 29 66 L 26 66 L 25 67 L 23 67 L 22 68 L 19 68 L 18 69 L 15 69 L 14 70 L 12 70 L 11 71 L 8 71 L 7 72 L 5 72 L 5 74 L 6 75 L 6 79 L 7 80 L 7 82 L 8 83 L 8 85 L 9 86 L 9 87 L 10 88 L 10 89 L 11 90 L 11 91 L 12 92 L 12 93 L 13 94 L 13 95 L 15 97 L 15 98 L 18 101 L 18 102 L 25 109 L 26 109 L 30 113 L 31 113 L 32 114 L 33 114 L 35 116 L 36 116 L 37 117 L 38 117 L 39 118 L 41 118 L 42 119 L 44 119 L 45 120 L 47 120 L 48 121 L 51 121 L 52 122 L 61 122 L 62 123 L 63 123 L 64 122 L 73 122 L 74 121 L 77 121 L 78 120 L 80 120 L 81 119 L 83 119 L 84 118 L 86 118 L 87 117 L 88 117 L 89 116 L 90 116 L 92 114 L 93 114 L 94 113 L 95 113 L 98 110 L 99 110 L 107 102 L 107 101 L 110 98 L 110 97 L 112 95 L 112 94 L 113 93 L 113 92 L 114 91 L 114 90 L 115 89 L 112 89 L 111 90 L 109 90 L 108 91 L 105 91 L 104 92 L 102 92 L 101 93 L 98 93 L 97 94 L 95 94 L 94 95 L 91 95 L 90 96 L 88 96 L 87 97 L 84 97 L 83 98 L 81 98 L 80 99 L 77 99 L 76 100 L 73 100 L 72 101 L 70 101 L 69 102 L 66 102 L 65 103 L 63 103 L 62 104 L 59 104 L 58 105 L 56 105 L 55 106 L 52 106 L 50 104 L 50 72 L 51 71 L 52 71 L 53 70 L 56 70 L 57 69 L 60 69 L 61 68 L 63 68 L 64 67 L 67 67 L 68 66 L 70 66 L 71 65 L 74 65 L 75 64 L 77 64 L 78 63 L 81 63 L 82 62 L 85 62 L 86 61 L 88 61 L 89 60 L 92 60 L 93 59 L 95 59 L 96 58 L 99 58 L 100 57 L 102 57 L 103 56 L 106 56 L 107 55 L 110 55 L 111 54 L 113 54 L 114 53 L 117 53 L 118 52 L 119 52 L 119 48 L 118 47 L 118 45 L 117 44 L 117 42 L 116 41 L 116 40 L 115 39 L 115 38 L 114 37 L 114 36 L 113 35 L 113 34 L 112 33 L 112 32 L 110 30 L 110 29 L 107 26 L 107 25 L 99 17 L 98 17 L 95 14 L 94 14 L 93 13 L 92 13 L 90 11 L 89 11 L 88 10 L 87 10 L 86 9 L 84 9 L 83 8 L 81 8 L 80 7 L 78 7 L 77 6 L 74 6 L 73 5 L 64 5 L 63 4 Z" fill="none" stroke="black" /></svg>