<?xml version="1.0" encoding="utf-8" ?>
<svg baseProfile="tiny" height="100%" version="1.2" width="100%" xmlns="http://www.w3.org/2000/svg" xmlns:ev="http://www.w3.org/2001/xml-events" xmlns:xlink="http://www.w3.org/1999/xlink"><defs /><path d="M 71 3 L 71 4 L 69 6 L 14 6 L 13 7 L 11 7 L 7 11 L 7 12 L 6 13 L 6 85 L 7 86 L 7 87 L 11 91 L 13 91 L 14 92 L 69 92 L 71 94 L 71 95 L 215 95 L 216 94 L 218 94 L 223 89 L 223 88 L 224 87 L 224 11 L 223 10 L 223 9 L 221 7 L 221 6 L 220 6 L 218 4 L 217 4 L 216 3 Z" fill="none" stroke="black" /></svg>