<?xml version="1.0" encoding="utf-8" ?>
<svg baseProfile="tiny" height="100%" version="1.2" width="100%" xmlns="http://www.w3.org/2000/svg" xmlns:ev="http://www.w3.org/2001/xml-events" xmlns:xlink="http://www.w3.org/1999/xlink"><defs /><path d="M 25 0 L 24 1 L 22 1 L 21 2 L 19 2 L 18 3 L 17 3 L 15 5 L 14 5 L 12 7 L 11 7 L 8 10 L 8 11 L 5 14 L 5 15 L 3 17 L 3 18 L 2 19 L 2 21 L 1 22 L 1 24 L 0 25 L 0 94 L 1 95 L 1 97 L 2 98 L 2 100 L 3 101 L 3 102 L 5 104 L 5 105 L 8 108 L 8 109 L 10 111 L 11 111 L 14 114 L 15 114 L 17 116 L 18 116 L 19 117 L 21 117 L 22 118 L 24 118 L 25 119 L 235 119 L 236 118 L 238 118 L 239 117 L 240 117 L 241 116 L 243 116 L 245 114 L 246 114 L 249 111 L 250 111 L 252 109 L 252 108 L 255 105 L 255 104 L 257 102 L 257 100 L 258 99 L 258 98 L 259 97 L 259 95 L 260 94 L 260 25 L 259 24 L 259 22 L 258 21 L 258 20 L 257 19 L 257 17 L 255 15 L 255 14 L 252 11 L 252 10 L 250 8 L 249 8 L 246 5 L 245 5 L 243 3 L 242 3 L 241 2 L 239 2 L 238 1 L 236 1 L 235 0 Z" fill="none" stroke="black" /></svg>