<?xml version="1.0" encoding="utf-8" ?>
<svg baseProfile="tiny" height="100%" version="1.2" width="100%" xmlns="http://www.w3.org/2000/svg" xmlns:ev="http://www.w3.org/2001/xml-events" xmlns:xlink="http://www.w3.org/1999/xlink"><defs /><path d="M 31 0 L 31 3 L 32 4 L 32 5 L 31 6 L 30 6 L 29 5 L 27 5 L 26 4 L 25 4 L 25 7 L 24 8 L 24 11 L 23 12 L 23 15 L 22 16 L 22 19 L 21 20 L 21 24 L 20 25 L 20 28 L 19 29 L 19 32 L 18 33 L 18 36 L 17 37 L 17 40 L 16 41 L 16 45 L 15 46 L 15 49 L 14 50 L 14 53 L 13 54 L 13 57 L 12 58 L 12 61 L 11 62 L 11 66 L 10 67 L 10 70 L 9 71 L 9 74 L 8 75 L 8 78 L 7 79 L 7 82 L 6 83 L 6 86 L 5 87 L 5 91 L 4 92 L 4 95 L 3 96 L 3 99 L 2 100 L 2 103 L 1 104 L 1 107 L 0 108 L 0 112 L 229 112 L 229 109 L 230 108 L 230 105 L 231 104 L 231 101 L 232 100 L 232 97 L 233 96 L 233 93 L 234 92 L 234 88 L 235 87 L 235 84 L 236 83 L 236 80 L 237 79 L 237 76 L 238 75 L 238 72 L 239 71 L 239 67 L 240 66 L 240 63 L 241 62 L 241 59 L 242 58 L 242 55 L 243 54 L 243 51 L 244 50 L 244 46 L 245 45 L 245 42 L 246 41 L 246 38 L 247 37 L 247 34 L 248 33 L 248 30 L 249 29 L 249 26 L 250 25 L 250 21 L 251 20 L 251 17 L 252 16 L 252 13 L 253 12 L 253 9 L 254 8 L 254 5 L 255 4 L 255 0 Z" fill="none" stroke="black" /></svg>