<?xml version="1.0" encoding="utf-8" ?>
<svg baseProfile="tiny" height="100%" version="1.2" width="100%" xmlns="http://www.w3.org/2000/svg" xmlns:ev="http://www.w3.org/2001/xml-events" xmlns:xlink="http://www.w3.org/1999/xlink"><defs /><path d="M 41 2 L 40 3 L 40 4 L 39 5 L 7 5 L 6 6 L 6 7 L 5 8 L 5 11 L 4 12 L 2 12 L 2 22 L 4 22 L 5 23 L 5 37 L 6 38 L 6 39 L 7 40 L 16 40 L 17 41 L 17 42 L 18 43 L 27 43 L 27 41 L 28 40 L 59 40 L 60 41 L 60 42 L 61 43 L 70 43 L 70 41 L 71 40 L 103 40 L 104 41 L 104 43 L 113 43 L 113 41 L 114 40 L 119 40 L 121 38 L 121 18 L 122 17 L 124 17 L 124 8 L 122 8 L 119 5 L 95 5 L 94 4 L 94 3 L 93 2 L 84 2 L 84 4 L 83 5 L 51 5 L 50 4 L 50 2 Z" fill="none" stroke="black" /></svg>